{"title":"Hitman Agent 47 2015 HDRip KORSUB XviD MP3-RARBG","uid":12612965,"size":1303231323,"categoryP":"video","categoryS":"movies","magnet":"?xt=urn:btih:613b8944ddf82f7b0701ed4076641518ef33dafd&amp;dn=Hitman+Agent+47+2015+HDRip+KORSUB+XviD+MP3-RARBG&amp;tr=udp%3A%2F%2Ftracker.leechers-paradise.org%3A6969&amp;tr=udp%3A%2F%2Fzer0day.ch%3A1337&amp;tr=udp%3A%2F%2Fopen.demonii.com%3A1337&amp;tr=udp%3A%2F%2Ftracker.coppersurfer.tk%3A6969&amp;tr=udp%3A%2F%2Fexodus.desync.com%3A6969","seeders":0,"leechers":2,"uploader":"TheRival","files":4,"time":1445483783,"description":"Screens: \nhttp://extraimago.com/image/UnF \nhttp://extraimago.com/image/UnH \nhttp://extraimago.com/image/Unk \nhttp://extraimago.com/image/Uno \nhttp://extraimago.com/image/Unt \nhttp://extraimago.com/image/Unx\r\n\r\nVideo\r\nID                                       : 0\r\nFormat                                   : MPEG-4 Visual\r\nFormat profile                           :   \r\nFormat settings, BVOP                    : No\r\nFormat settings, QPel                    : No\r\nFormat settings, GMC                     : No warppoints\r\nFormat settings, Matrix                  : Default (H.263)\r\nCodec ID                                 : XVID\r\nCodec ID/Hint                            : XviD\r\nDuration                                 : 1h 36mn\r\nBit rate                                 : 1 600 Kbps\r\nWidth                                    : 720 pixels\r\nHeight                                   : 400 pixels\r\nDisplay aspect ratio                     : 16:9\r\nFrame rate                               : 24.000 fps\r\nColor space                              : YUV\r\nChroma subsampling                       : 4:2:0\r\nBit depth                                : 8 bits\r\nScan type                                : Progressive\r\nCompression mode                         : Lossy\r\nBits/(Pixel*Frame)                       : 0.231\r\nStream size                              : 1.08 GiB (89%)\r\nWriting library                          : Lavc56.58.100\r\n\r\nAudio\r\nID                                       : 1\r\nFormat                                   : MPEG Audio\r\nFormat version                           : Version 1\r\nFormat profile                           : Layer 3\r\nMode                                     : Joint stereo\r\nMode extension                           : MS Stereo\r\nCodec ID                                 : 55\r\nCodec ID/Hint                            : MP3\r\nDuration                                 : 1h 36mn\r\nBit rate mode                            : Constant\r\nBit rate                                 : 192 Kbps\r\nChannel(s)                               : 2 channels\r\nSampling rate                            : 44.1 KHz\r\nCompression mode                         : Lossy\r\nStream size                              : 132 MiB (11%)\r\nAlignment                                : Aligned on interleaves\r\nInterleave, duration                     : 26 ms (0.63 video frame)\r\nInterleave, preload duration             : 522 ms\r\nWriting library                          : LAME3.99.5","torrent":{"xt":"urn:btih:613b8944ddf82f7b0701ed4076641518ef33dafd","amp;dn":"Hitman+Agent+47+2015+HDRip+KORSUB+XviD+MP3-RARBG","amp;tr":["udp%3A%2F%2Ftracker.leechers-paradise.org%3A6969","udp%3A%2F%2Fzer0day.ch%3A1337","udp%3A%2F%2Fopen.demonii.com%3A1337","udp%3A%2F%2Ftracker.coppersurfer.tk%3A6969","udp%3A%2F%2Fexodus.desync.com%3A6969"],"infoHash":"613b8944ddf82f7b0701ed4076641518ef33dafd","infoHashBuffer":{"type":"Buffer","data":[97,59,137,68,221,248,47,123,7,1,237,64,118,100,21,24,239,51,218,253]},"announce":[],"urlList":[]}}